<svg width="72" height="32" viewBox="0 0 72 32" fill="none" xmlns="http://www.w3.org/2000/svg">
<path d="M15.6518 23.7407L13.936 8.55693L6.97187 23.7407H2.70741L0 0.346313H4.69826L6.22045 15.7286L13.111 0.381335L17.6117 0.346313L19.1649 15.7363L26.098 0.346313H30.7924L19.9163 23.7407H15.6518Z" fill="#3F4E55"/>
<path d="M40.1658 23.7368L41.6376 15.3122C42.0249 12.9774 41.901 11.4793 41.2077 10.6932C40.9163 10.3879 40.5615 10.1508 40.1685 9.99875C39.7755 9.84676 39.3541 9.78361 38.9341 9.81381H38.7946C38.0324 9.82357 37.2911 10.0651 36.6682 10.5065C35.9256 11.0464 35.3648 11.8012 35.0608 12.67C34.7202 13.7461 34.4612 14.8466 34.2862 15.962L32.9499 23.7368H28.4414L32.5354 0.346313H36.5985L35.3784 7.3195C36.6841 6.25093 38.3008 5.63893 39.9837 5.5762C40.2355 5.55674 40.495 5.54896 40.7584 5.54896C42.8189 5.54896 44.3334 6.14822 45.4063 7.37398C47.0989 9.20288 46.7619 12.1019 46.2274 15.1565L44.7285 23.7174L40.1658 23.7368Z" fill="#3F4E55"/>
<path d="M50.0582 4.21426L48.354 0H55.1167L54.3847 4.21426H50.0582Z" fill="#3F4E55"/>
<path d="M51.9248 31.2976L53.2456 23.7368H52.1727C49.0431 23.7368 46.9438 21.1764 47.4938 18.0322L49.5776 6.01592H54.0512L51.9829 17.8532C51.9443 18.0227 51.9449 18.1988 51.9847 18.3679C52.0245 18.5371 52.1023 18.6949 52.2123 18.8291C52.3223 18.9632 52.4615 19.0703 52.6191 19.1419C52.7768 19.2136 52.9487 19.248 53.1216 19.2424H54.0164L56.3403 6.01203H60.4227L60.26 6.94983C61.7276 6.04577 63.4113 5.55766 65.1326 5.53729C67.6231 5.53729 69.8076 6.64631 70.9696 8.49856C71.965 10.1601 72.24 12.3003 71.7907 14.8725C71.4458 17.1602 70.3674 19.2723 68.7192 20.8884C66.9574 22.6758 64.5685 23.6984 62.065 23.7368H61.8868H61.7358H57.754L56.4333 31.2976H51.9248ZM62.491 19.1373C66.5773 19.1373 67.4217 14.9737 67.503 14.4989C67.8129 12.7401 67.7625 9.79436 64.0171 9.79436C62.9868 9.79436 59.9037 10.6504 59.2181 14.4639L58.4009 19.1334L62.491 19.1373Z" fill="#3F4E55"/>
</svg>
