<svg width="24" height="24" viewBox="0 0 24 24" fill="none" xmlns="http://www.w3.org/2000/svg">
<path d="M20.25 22C19.009 22 18 20.991 18 19.75V19H6V19.75C6 20.991 4.991 22 3.75 22C2.509 22 1.5 20.991 1.5 19.75V18.871C0.615 18.558 0 17.71 0 16.75V12.25C0 11.888 0.075 11.537 0.224 11.205C0.36 10.907 0.535 10.655 0.75 10.439L2.689 8.5L1.94 7.75H0.75C0.336 7.751 0 7.415 0 7.001C0 6.587 0.336 6.251 0.75 6.251H2.25C2.45 6.251 2.639 6.329 2.78 6.471L3.456 7.147L4.771 3.637C5.197 2.508 6.293 1.75 7.498 1.75H16.5C17.706 1.75 18.802 2.507 19.229 3.635L20.544 7.147L21.22 6.471C21.36 6.331 21.553 6.251 21.75 6.251H23.25C23.664 6.251 24 6.587 24 7.001C24 7.415 23.664 7.751 23.25 7.751H22.061L21.311 8.501L23.25 10.441C23.463 10.654 23.637 10.904 23.765 11.184C23.768 11.19 23.78 11.217 23.783 11.223C23.925 11.538 24 11.889 24 12.25V16.75C24 17.71 23.385 18.558 22.5 18.871V19.75C22.5 20.991 21.491 22 20.25 22ZM19.5 19.75C19.5 20.164 19.836 20.5 20.25 20.5C20.664 20.5 21 20.164 21 19.75V19H19.5V19.75ZM3 19.75C3 20.164 3.336 20.5 3.75 20.5C4.164 20.5 4.5 20.164 4.5 19.75V19H3V19.75ZM1.5 16.75C1.5 17.164 1.836 17.5 2.25 17.5H21.75C22.164 17.5 22.5 17.164 22.5 16.75V15.25H17.324C16.899 15.723 16.287 16 15.651 16H8.35C7.713 16 7.101 15.723 6.676 15.25H1.5V16.75ZM7.745 14.191C7.886 14.383 8.114 14.5 8.349 14.5H15.651C15.886 14.5 16.115 14.382 16.255 14.191C16.285 14.124 16.323 14.063 16.37 14.009L17.425 12.25H6.574L7.629 14.008C7.676 14.063 7.715 14.124 7.745 14.191ZM22.5 13.75V12.25H19.175L18.275 13.75H22.5ZM5.725 13.75L4.825 12.25H1.5V13.75H5.725ZM21.439 10.75L19.94 9.25H4.061L2.561 10.75H21.439ZM19.168 7.75L17.825 4.163C17.618 3.617 17.086 3.25 16.501 3.25H7.499C6.914 3.25 6.382 3.618 6.175 4.165L4.832 7.75H19.168Z" fill="#707089"/>
</svg>
