<svg width="24" height="24" viewBox="0 0 24 24" fill="none" xmlns="http://www.w3.org/2000/svg">
<g clip-path="url(#clip0)">
<path d="M15.375 16.513C15.331 16.513 15.287 16.509 15.244 16.502C14.731 16.442 14.321 16.032 14.261 15.519C14.254 15.477 14.25 15.433 14.25 15.389C14.25 15.345 14.254 15.301 14.261 15.258C14.321 14.745 14.731 14.335 15.244 14.275C15.286 14.267 15.33 14.264 15.375 14.264C15.42 14.264 15.463 14.268 15.506 14.275C16.019 14.335 16.429 14.745 16.489 15.258C16.497 15.3 16.5 15.344 16.5 15.389C16.5 15.434 16.496 15.477 16.489 15.52C16.429 16.033 16.019 16.443 15.506 16.503C15.463 16.509 15.42 16.513 15.375 16.513Z" fill="#707089"/>
<path d="M8.625 16.513C8.581 16.513 8.537 16.509 8.495 16.502C7.982 16.442 7.572 16.032 7.512 15.52C7.504 15.476 7.5 15.432 7.5 15.388C7.5 15.344 7.504 15.3 7.511 15.257C7.571 14.744 7.981 14.335 8.494 14.274C8.536 14.267 8.58 14.263 8.624 14.263C8.668 14.263 8.712 14.267 8.754 14.274C9.267 14.335 9.677 14.744 9.737 15.257C9.746 15.3 9.75 15.344 9.75 15.388C9.75 15.432 9.746 15.476 9.739 15.519C9.679 16.032 9.269 16.441 8.756 16.501C8.713 16.509 8.67 16.513 8.625 16.513Z" fill="#707089"/>
<path d="M6.25 19.513C5.285 19.513 4.5 18.728 4.5 17.763V7.263C4.5 5.747 5.734 4.513 7.25 4.513H11.25V1.513H9C8.586 1.513 8.25 1.177 8.25 0.763C8.25 0.349 8.587 0.0130005 9 0.0130005H15C15.414 0.0130005 15.75 0.349 15.75 0.763C15.75 1.177 15.414 1.513 15 1.513H12.75V4.513H16.75C18.266 4.513 19.5 5.747 19.5 7.263V17.763C19.5 18.728 18.715 19.513 17.75 19.513H6.25V19.513ZM6 17.763C6 17.901 6.112 18.013 6.25 18.013H17.75C17.888 18.013 18 17.901 18 17.763V12.763H6V17.763ZM18 11.263V7.263C18 6.574 17.439 6.013 16.75 6.013H7.25C6.561 6.013 6 6.574 6 7.263V11.263H18Z" fill="#707089"/>
<path d="M0.749708 24.013C0.514708 24.013 0.290708 23.901 0.149708 23.713C-0.0982919 23.382 -0.0312919 22.911 0.299708 22.662L3.29971 20.412C3.43071 20.314 3.58571 20.262 3.74971 20.262C3.98471 20.262 4.20871 20.374 4.34971 20.561C4.59771 20.893 4.53071 21.363 4.19971 21.612L1.19971 23.862C1.06871 23.961 0.913708 24.013 0.749708 24.013Z" fill="#707089"/>
<path d="M23.2497 24.013C23.0867 24.013 22.9317 23.961 22.8007 23.863L19.7997 21.613C19.4687 21.365 19.4017 20.894 19.6497 20.563C19.7917 20.375 20.0157 20.263 20.2507 20.263C20.4137 20.263 20.5687 20.315 20.6997 20.412L23.7007 22.662C24.0317 22.91 24.0987 23.381 23.8507 23.712C23.7087 23.901 23.4847 24.013 23.2497 24.013Z" fill="#707089"/>
</g>
<defs>
<clipPath id="clip0">
<rect width="24" height="24" fill="white"/>
</clipPath>
</defs>
</svg>
