<svg width="10" height="8" viewBox="0 0 10 8" fill="none" xmlns="http://www.w3.org/2000/svg">
<path fill-rule="evenodd" clip-rule="evenodd" d="M9.60193 0.20151C10.043 0.533949 10.131 1.16096 9.79855 1.60199L5.59979 7.17222C5.42002 7.41007 5.19132 7.60637 4.92939 7.74816C4.66748 7.88994 4.3783 7.97401 4.08137 7.9949C3.78445 8.01579 3.48639 7.97305 3.20725 7.86944C2.92809 7.76583 2.67416 7.60367 2.46275 7.39359L0.294736 5.23683C-0.0968032 4.84732 -0.0984514 4.21416 0.291055 3.82262C0.680561 3.43108 1.31372 3.42943 1.70526 3.81894L3.87251 5.97493C3.87253 5.97495 3.87248 5.97491 3.87251 5.97493C3.88088 5.98323 3.89133 5.99003 3.90321 5.99444C3.91512 5.99886 3.92803 6.00074 3.94099 5.99983C3.95394 5.99892 3.96632 5.99526 3.97727 5.98933C3.98813 5.98346 3.99718 5.97557 4.00409 5.96651C4.00414 5.96644 4.00403 5.96659 4.00409 5.96651L8.20145 0.398124C8.53389 -0.042901 9.16091 -0.130928 9.60193 0.20151Z" fill="white"/>
</svg>
