<svg width="24" height="24" viewBox="0 0 24 24" fill="none" xmlns="http://www.w3.org/2000/svg">
<path d="M11.0986 6.92999C9.23763 6.92999 7.72363 5.41599 7.72363 3.55499C7.72363 1.69399 9.23763 0.179993 11.0986 0.179993C12.9596 0.179993 14.4736 1.69399 14.4736 3.55499C14.4736 5.41599 12.9596 6.92999 11.0986 6.92999ZM11.0986 1.67999C10.0646 1.67999 9.22363 2.52099 9.22363 3.55499C9.22363 4.58899 10.0646 5.42999 11.0986 5.42999C12.1326 5.42999 12.9736 4.58899 12.9736 3.55499C12.9736 2.52099 12.1326 1.67999 11.0986 1.67999Z" fill="#707089"/>
<path d="M16.3646 23.86C15.9926 23.86 15.6216 23.765 15.2916 23.585C14.7636 23.298 14.3796 22.822 14.2096 22.245C13.7876 20.993 12.9976 19.849 11.9646 18.99C11.4396 20.328 10.7716 21.61 9.97463 22.805C9.55663 23.433 8.85463 23.808 8.09763 23.808C7.65363 23.808 7.22363 23.678 6.85363 23.432C5.81963 22.744 5.53863 21.343 6.22663 20.31C7.80563 17.945 8.69963 15.223 8.83163 12.396C8.37563 12.816 8.10063 13.416 8.09863 14.052C8.09863 15.291 7.08963 16.3 5.84863 16.3C4.60763 16.3 3.59863 15.291 3.59863 14.05C3.60263 10.332 6.62963 7.30399 10.3476 7.29999C12.9586 7.29999 15.3686 8.46299 16.9816 10.49C17.2656 10.846 17.6896 11.05 18.1456 11.05C18.1806 11.05 18.2126 11.052 18.2436 11.056C19.4566 11.103 20.4046 12.087 20.4046 13.304C20.4046 14.545 19.3956 15.554 18.1546 15.554C16.3096 15.554 14.6076 14.733 13.4676 13.301C13.4136 13.233 13.3576 13.167 13.2986 13.103C13.2676 13.526 13.2246 13.949 13.1676 14.368C15.6776 15.802 17.5596 18.093 18.4846 20.845C18.4936 20.869 18.5106 20.92 18.5266 20.972C18.6966 21.548 18.6326 22.156 18.3446 22.684C18.0576 23.212 17.5816 23.596 17.0056 23.767C16.7946 23.829 16.5796 23.86 16.3646 23.86ZM11.5996 17.051C11.7416 17.051 11.8796 17.091 11.9996 17.167C13.7036 18.242 14.9956 19.885 15.6396 21.795C15.7036 22.012 15.8306 22.171 16.0086 22.269C16.1186 22.329 16.2416 22.361 16.3656 22.361C16.4376 22.361 16.5096 22.351 16.5796 22.33C16.7716 22.273 16.9306 22.145 17.0266 21.969C17.1226 21.793 17.1436 21.591 17.0876 21.398C17.0826 21.382 17.0766 21.363 17.0696 21.345C16.2046 18.77 14.4066 16.678 12.0066 15.447C11.7156 15.297 11.5556 14.981 11.6086 14.659C11.7706 13.669 11.8516 12.657 11.8516 11.653V11.623C11.8516 11.36 11.9916 11.114 12.2176 10.979C12.3336 10.91 12.4666 10.873 12.6026 10.873C12.7266 10.873 12.8496 10.904 12.9586 10.963C13.6126 11.315 14.1786 11.788 14.6416 12.369C15.4956 13.442 16.7706 14.057 18.1406 14.057C18.5686 14.057 18.9056 13.721 18.9056 13.307C18.9056 12.893 18.5696 12.557 18.1556 12.557C18.1266 12.557 18.0986 12.555 18.0706 12.552C17.1856 12.53 16.3626 12.121 15.8106 11.427C14.4816 9.75699 12.4996 8.80099 10.3696 8.80099C7.45763 8.80399 5.10163 11.159 5.09863 14.052C5.09863 14.465 5.43463 14.801 5.84863 14.801C6.26263 14.801 6.59863 14.465 6.59863 14.051C6.60363 12.344 7.75963 10.854 9.41063 10.425C9.47163 10.409 9.53463 10.401 9.59863 10.401C9.76363 10.401 9.92663 10.457 10.0576 10.558C10.2396 10.699 10.3486 10.921 10.3486 11.151V11.651C10.3516 15.041 9.35763 18.323 7.47463 21.144C7.24563 21.488 7.33963 21.956 7.68463 22.186C7.80763 22.268 7.95063 22.311 8.09863 22.311C8.35263 22.311 8.58663 22.186 8.72663 21.976C9.63863 20.607 10.3666 19.122 10.8886 17.563C10.9626 17.343 11.1296 17.172 11.3486 17.095C11.4286 17.066 11.5136 17.051 11.5996 17.051Z" fill="#707089"/>
</svg>
