<svg width="24" height="24" viewBox="0 0 24 24" fill="none" xmlns="http://www.w3.org/2000/svg">
<path d="M19.5 21.286C17.019 21.286 15 19.267 15 16.786C15 15.284 15.759 13.881 17 13.049L15.751 10.267L8.961 12.109L7.764 13.699C8.553 14.532 9 15.64 9 16.786C9 19.267 6.981 21.286 4.5 21.286C2.019 21.286 0 19.267 0 16.786C0 14.305 2.019 12.286 4.5 12.286C5.219 12.286 5.927 12.461 6.567 12.795L7.621 11.395L5.564 7.78598H3.75C3.336 7.78598 3 7.44998 3 7.03598C3 6.62198 3.336 6.28598 3.75 6.28598H9C9.414 6.28598 9.75 6.62198 9.75 7.03598C9.75 7.44998 9.414 7.78598 9 7.78598H7.291L8.881 10.576L15.13 8.88098L13.83 5.98398C13.491 5.23098 13.828 4.34198 14.581 4.00198C14.64 3.97598 14.701 3.95298 14.762 3.93398L17.749 3.03298C17.819 3.01198 17.891 3.00098 17.965 3.00098C18.293 3.00098 18.589 3.21998 18.684 3.53398C18.742 3.72598 18.722 3.92898 18.627 4.10598C18.532 4.28198 18.374 4.41198 18.182 4.46898L15.198 5.36898L18.369 12.433C18.742 12.335 19.121 12.285 19.5 12.285C21.981 12.285 24 14.304 24 16.785C24 19.266 21.981 21.286 19.5 21.286ZM17.629 14.448C16.924 15.014 16.5 15.877 16.5 16.786C16.5 18.44 17.846 19.786 19.5 19.786C21.154 19.786 22.5 18.44 22.5 16.786C22.5 15.132 21.154 13.786 19.5 13.786C19.331 13.786 19.162 13.8 18.995 13.829L20.184 16.479C20.266 16.662 20.272 16.865 20.201 17.053C20.13 17.24 19.99 17.389 19.807 17.471C19.711 17.514 19.607 17.537 19.5 17.537C19.205 17.537 18.936 17.363 18.815 17.094L17.629 14.448ZM4.5 13.786C2.846 13.786 1.5 15.132 1.5 16.786C1.5 18.44 2.846 19.786 4.5 19.786C6.154 19.786 7.5 18.44 7.5 16.786C7.5 16.098 7.27 15.449 6.844 14.92L5.099 17.237C4.958 17.424 4.734 17.536 4.5 17.536C4.336 17.536 4.181 17.484 4.049 17.385C3.889 17.264 3.785 17.089 3.757 16.89C3.729 16.692 3.78 16.494 3.901 16.334L5.646 14.016C5.283 13.865 4.893 13.786 4.5 13.786Z" fill="#707089"/>
</svg>
