<svg width="24" height="24" viewBox="0 0 24 24" fill="none" xmlns="http://www.w3.org/2000/svg">
<path d="M18.75 24C15.855 24 13.5 21.645 13.5 18.75C13.5 16.84 14.559 15.073 16.226 14.154L15.705 12.764L12.092 13.28L13.281 14.469C13.423 14.611 13.501 14.799 13.501 14.999C13.501 15.199 13.423 15.388 13.281 15.529C13.139 15.67 12.951 15.749 12.751 15.749C12.551 15.749 12.362 15.671 12.221 15.529L10.538 13.846L9.241 15.328C9.888 16.084 10.307 17.013 10.445 17.998H11.251C11.665 17.998 12.001 18.334 12.001 18.748C12.001 19.162 11.665 19.498 11.251 19.498H10.443C10.074 22.05 7.857 24 5.25 24C2.355 24 0 21.645 0 18.75C0 15.855 2.355 13.5 5.25 13.5H5.275C6.288 13.5 7.26 13.791 8.109 14.344L9.677 12.552L9.164 10.5H8.25C7.836 10.5 7.5 10.164 7.5 9.75C7.5 9.336 7.836 9 8.25 9H11.25C11.664 9 12 9.336 12 9.75C12 10.164 11.664 10.5 11.25 10.5H10.711L11.064 11.912L15.166 11.326L13.549 7.014C13.463 6.784 13.495 6.525 13.635 6.323C13.773 6.121 14.004 6 14.25 6H18C18.414 6 18.75 6.336 18.75 6.75C18.75 7.164 18.414 7.5 18 7.5H15.332L17.629 13.624C18.001 13.541 18.377 13.5 18.75 13.5C21.645 13.5 24 15.855 24 18.75C24 21.645 21.645 24 18.75 24ZM16.76 15.579C15.679 16.261 15 17.464 15 18.75C15 20.818 16.682 22.5 18.75 22.5C20.818 22.5 22.5 20.818 22.5 18.75C22.5 16.682 20.818 15 18.75 15C18.557 15 18.36 15.016 18.163 15.049L19.452 18.487C19.522 18.675 19.515 18.878 19.433 19.06C19.35 19.242 19.201 19.382 19.013 19.452C18.93 19.484 18.841 19.5 18.75 19.5C18.439 19.5 18.157 19.304 18.048 19.013L16.76 15.579ZM5.252 15C3.183 15 1.5 16.682 1.5 18.75C1.5 20.818 3.182 22.5 5.25 22.5C7.031 22.5 8.57 21.212 8.922 19.5H5.25C4.956 19.5 4.688 19.327 4.567 19.06C4.446 18.793 4.492 18.477 4.686 18.256L7.108 15.488C6.548 15.168 5.921 15 5.273 15H5.252ZM8.925 18C8.814 17.448 8.578 16.926 8.237 16.476L6.903 18H8.925Z" fill="#707089"/>
<path d="M3.75025 12C3.65125 12 3.55425 11.981 3.46325 11.943C3.18225 11.826 3.00025 11.554 3.00025 11.25V7.5H1.65525C1.35525 7.5 1.07325 7.383 0.86125 7.171C0.64825 6.959 0.53125 6.676 0.53125 6.376C0.53125 6.076 0.64725 5.793 0.86025 5.58L6.22025 0.22C6.36125 0.078 6.55025 0 6.75025 0C6.84925 0 6.94625 0.019 7.03725 0.057C7.31825 0.173 7.50025 0.445 7.50025 0.75V4.5H8.84525C9.14525 4.5 9.42725 4.617 9.63925 4.829C9.85225 5.041 9.96925 5.324 9.96925 5.624C9.96925 5.924 9.85325 6.207 9.64025 6.42L4.28025 11.78C4.13925 11.922 3.95025 12 3.75025 12ZM3.75025 6C4.16425 6 4.50025 6.336 4.50025 6.75V9.439L7.93925 6H6.75025C6.33625 6 6.00025 5.663 6.00025 5.25V2.56L2.56125 6H3.75025Z" fill="#707089"/>
</svg>
