<svg width="13" height="14" viewBox="0 0 13 14" fill="none" xmlns="http://www.w3.org/2000/svg">
<path fill-rule="evenodd" clip-rule="evenodd" d="M6.14259 1.75C4.89994 1.75 3.89258 2.75736 3.89258 4.00001C3.89258 5.24265 4.89994 6.25002 6.14259 6.25002C7.38523 6.25002 8.39259 5.24265 8.39259 4.00001C8.39259 2.75736 7.38523 1.75 6.14259 1.75ZM2.39258 4.00001C2.39258 1.92894 4.07151 0.25 6.14259 0.25C8.21366 0.25 9.89259 1.92894 9.89259 4.00001C9.89259 6.07108 8.21366 7.75002 6.14259 7.75002C4.07151 7.75002 2.39258 6.07108 2.39258 4.00001Z" fill="#707089"/>
<path fill-rule="evenodd" clip-rule="evenodd" d="M6.14287 8.60718C4.97781 8.60718 3.86047 9.07 3.03664 9.89382C2.39178 10.5387 1.96812 11.3634 1.81448 12.25H10.4713C10.3176 11.3634 9.89396 10.5387 9.2491 9.89382C8.42528 9.07 7.30793 8.60718 6.14287 8.60718ZM1.97598 8.83316C3.08111 7.72803 4.57999 7.10718 6.14287 7.10718C7.70576 7.10718 9.20463 7.72803 10.3098 8.83316C11.4149 9.93829 12.0357 11.4372 12.0357 13C12.0357 13.4143 11.7 13.75 11.2857 13.75H1C0.585786 13.75 0.25 13.4143 0.25 13C0.25 11.4372 0.870855 9.93829 1.97598 8.83316Z" fill="#707089"/>
</svg>
